<svg width="5449" height="5449" viewBox="0 0 5449 5449" fill="none" xmlns="http://www.w3.org/2000/svg">
<circle cx="2724.5" cy="2724.5" r="2645" fill="#FCBF49" stroke="#F77F00" stroke-width="159"/>
<path d="M1283.6 1634.75C2094.05 1524.08 2893.11 1377.05 3714.52 1406.92C3749 1408.18 3747.38 1406.92 3763 1406.92C3823.57 1406.92 3821.66 1453.42 3865.43 1500.73C3917.35 1556.86 3958.56 1607.43 3994.2 1677.28C4066.81 1819.6 4195.69 1920.77 4268.06 2061.85C4308.98 2141.63 4346.16 2226.78 4369.44 2313.56C4372.69 2325.66 4402.3 2398.16 4393.92 2409.12C4383.84 2422.29 4336.55 2423.2 4322.83 2426.6C4277.44 2437.85 4231.95 2450.75 4187.65 2465.64C3995.71 2530.17 3814.27 2620.35 3620.12 2679.48C3511.13 2712.68 3401.01 2737.09 3289.16 2758.14C3270.03 2761.75 3218.3 2756.62 3232.06 2770.38C3256.81 2795.13 3264.09 2840.82 3275.76 2874.1C3333.4 3038.35 3420.04 3191.95 3493.1 3349.56C3576.85 3530.21 3626.09 3709.03 3672.56 3901.93C3684.89 3953.11 3799.16 4283.96 3729.08 4303.98C3656.93 4324.59 3589.43 4357.97 3517.57 4379.73C3415.61 4410.6 3310.71 4427.79 3206.42 4448.48C3077.62 4474.04 2952.19 4510.87 2824.19 4539.38C2787.91 4547.46 2752.64 4554.47 2715.81 4548.12C2706.05 4546.44 2680.4 4546.78 2671.53 4541.71C2658.81 4534.44 2648.37 4462.44 2646.47 4456.06C2622.08 4373.85 2591.75 4293.45 2561.99 4213.08C2498.69 4042.19 2430.21 3873.11 2379.03 3698C2336 3550.79 2304.43 3400.79 2252 3256.33C2202.24 3119.2 2139.48 2973.15 2048.65 2857.2C2036.25 2841.37 2025.46 2831.64 2007.28 2825.15C1992.61 2819.91 1973.46 2822.82 1958.34 2822.82C1818.24 2822.82 1679.54 2867.16 1543.47 2895.07C1417.6 2920.89 1292.27 2944.71 1163.57 2948.1C1153.58 2948.36 1109.25 2954.26 1097.14 2944.02C1064.32 2916.24 1052.96 2799.82 1039.46 2759.31C973.572 2561.65 893.645 2369.23 817.459 2175.47C761.54 2033.26 711.92 1885.82 679.948 1736.13C671.107 1694.74 669.94 1682.41 712.577 1679.61C903.738 1667.08 1093.1 1660.76 1283.6 1634.75Z" fill="black"/>
<path d="M1472.6 1381.75C2283.05 1271.08 3082.11 1124.05 3903.52 1153.92C3938 1155.18 3936.38 1153.92 3952 1153.92C4012.57 1153.92 4010.66 1200.42 4054.43 1247.73C4106.35 1303.86 4147.56 1354.43 4183.2 1424.28C4255.81 1566.6 4384.69 1667.77 4457.06 1808.85C4497.98 1888.63 4535.16 1973.78 4558.44 2060.56C4561.69 2072.66 4591.3 2145.16 4582.92 2156.12C4572.84 2169.29 4525.55 2170.2 4511.83 2173.6C4466.44 2184.85 4420.95 2197.75 4376.65 2212.64C4184.71 2277.17 4003.27 2367.35 3809.12 2426.48C3700.13 2459.68 3590.01 2484.09 3478.16 2505.14C3459.03 2508.75 3407.3 2503.62 3421.06 2517.38C3445.81 2542.13 3453.09 2587.82 3464.76 2621.1C3522.4 2785.35 3609.04 2938.95 3682.1 3096.56C3765.85 3277.21 3815.09 3456.03 3861.56 3648.93C3873.89 3700.11 3988.16 4030.96 3918.08 4050.98C3845.93 4071.59 3778.43 4104.97 3706.57 4126.73C3604.61 4157.6 3499.71 4174.79 3395.42 4195.48C3266.62 4221.04 3141.19 4257.87 3013.19 4286.38C2976.91 4294.46 2941.64 4301.47 2904.81 4295.12C2895.05 4293.44 2869.4 4293.78 2860.53 4288.71C2847.81 4281.44 2837.37 4209.44 2835.47 4203.06C2811.08 4120.85 2780.75 4040.45 2750.99 3960.08C2687.69 3789.19 2619.21 3620.11 2568.03 3445C2525 3297.79 2493.43 3147.79 2441 3003.33C2391.24 2866.2 2328.48 2720.15 2237.65 2604.2C2225.25 2588.37 2214.46 2578.64 2196.28 2572.15C2181.61 2566.91 2162.46 2569.82 2147.34 2569.82C2007.24 2569.82 1868.54 2614.16 1732.47 2642.07C1606.6 2667.89 1481.27 2691.71 1352.57 2695.1C1342.58 2695.36 1298.25 2701.26 1286.14 2691.02C1253.32 2663.24 1241.96 2546.82 1228.46 2506.31C1162.57 2308.65 1082.65 2116.23 1006.46 1922.47C950.54 1780.26 900.92 1632.82 868.948 1483.13C860.107 1441.74 858.94 1429.41 901.577 1426.61C1092.74 1414.08 1282.1 1407.76 1472.6 1381.75Z" fill="white" stroke="black" stroke-width="74" stroke-linecap="round"/>
</svg>
