<svg width="12300" height="3482" viewBox="0 0 12300 3482" fill="none" xmlns="http://www.w3.org/2000/svg">
<path d="M608.599 565.539C1419.05 454.875 2218.11 307.843 3039.52 337.713C3074 338.967 3072.38 337.713 3088 337.713C3148.57 337.713 3146.66 384.21 3190.43 431.523C3242.35 487.648 3283.56 538.222 3319.2 608.074C3391.81 750.392 3520.69 851.565 3593.06 992.639C3633.98 1072.42 3671.16 1157.57 3694.44 1244.35C3697.69 1256.45 3727.3 1328.95 3718.92 1339.91C3708.84 1353.09 3661.55 1353.99 3647.83 1357.39C3602.44 1368.64 3556.95 1381.54 3512.65 1396.43C3320.71 1460.96 3139.27 1551.14 2945.12 1610.27C2836.13 1643.47 2726.01 1667.88 2614.16 1688.94C2595.03 1692.54 2543.3 1687.41 2557.06 1701.17C2581.81 1725.92 2589.09 1771.62 2600.76 1804.89C2658.4 1969.14 2745.04 2122.74 2818.1 2280.35C2901.85 2461 2951.09 2639.82 2997.56 2832.73C3009.89 2883.9 3124.16 3214.75 3054.08 3234.77C2981.93 3255.39 2914.43 3288.76 2842.57 3310.52C2740.61 3341.39 2635.71 3358.58 2531.42 3379.27C2402.62 3404.83 2277.19 3441.67 2149.19 3470.17C2112.91 3478.25 2077.64 3485.26 2040.81 3478.91C2031.05 3477.23 2005.4 3477.57 1996.53 3472.5C1983.81 3465.23 1973.37 3393.23 1971.47 3386.85C1947.08 3304.64 1916.75 3224.24 1886.99 3143.87C1823.69 2972.98 1755.21 2803.9 1704.03 2628.79C1661 2481.58 1629.43 2331.59 1577 2187.12C1527.24 2049.99 1464.48 1903.94 1373.65 1787.99C1361.25 1772.17 1350.46 1762.44 1332.28 1755.94C1317.61 1750.7 1298.46 1753.61 1283.34 1753.61C1143.24 1753.61 1004.54 1797.95 868.471 1825.86C742.603 1851.68 617.266 1875.5 488.568 1878.89C478.584 1879.15 434.247 1885.05 422.143 1874.81C389.32 1847.04 377.963 1730.62 364.458 1690.1C298.572 1492.44 218.645 1300.02 142.459 1106.26C86.54 964.047 36.9204 816.615 4.94767 666.924C-3.89258 625.536 -5.06022 613.2 37.5775 610.405C228.738 597.869 418.104 591.55 608.599 565.539Z" fill="black"/>
<path d="M5122 1173.74C5109.72 874.443 5107.4 577.676 5131.78 279.109C5210.14 248.293 5317.58 288.871 5400.72 263.839C5431.45 254.589 5438.03 267.334 5445.72 294.413C5468.12 373.339 5518.23 461.335 5560.7 531.672C5648.26 676.655 5792.55 780.771 5855.67 941.371C5888.46 1024.8 6127.72 812.003 6138.14 803.174C6233.27 722.603 6323.33 636.496 6418.73 556.132C6513.28 476.49 6616.45 405.694 6705.58 320.096C6749.79 277.633 6788.06 222.733 6837.44 185.568C6861.15 167.718 6906.04 207.156 6923.05 218.588C7004.89 273.598 7083.04 330.359 7170.52 376.965C7231.3 409.344 7308.02 436.106 7360.5 481.53C7397.22 513.311 7156.51 669.282 7153.03 672.315C7003.94 802.249 6866.13 943.087 6711.82 1067.34C6617.49 1143.3 6515.6 1211.14 6428.11 1294.81C6399.99 1321.71 6124.62 1572.99 6176.26 1606.67C6225.51 1638.8 6272.28 1675.61 6319.37 1710.63C6475.4 1826.66 6647.87 1918.33 6788.07 2055.51C6967.92 2231.49 7139.1 2425.13 7303.63 2615.02C7450.28 2784.27 7619.66 2916.51 7811.7 3032.67C7826.74 3041.77 7892.23 3073.05 7897.94 3092.6C7901.15 3103.59 7772.58 3137.73 7764.83 3140.29C7584.59 3199.88 7400.34 3225.85 7222.39 3294.39C7059.21 3357.24 6869.59 3416.94 6693.08 3430.75C6628.72 3435.79 6611.12 3362.47 6579.96 3314.57C6437.23 3095.1 6251.3 2901.72 6140.01 2663.94C6120.99 2623.3 6072.81 2437.21 6024.4 2422.4C6005.86 2416.73 5989.89 2515.66 5988.78 2524.52C5969.27 2680.42 5964.6 2838.89 5948.79 2995.37C5936.89 3113.11 5937.04 3236.62 5920.04 3353.09C5915.92 3381.3 5791.28 3365.32 5772.56 3365.32C5599.29 3365.32 5414.07 3359.97 5243.24 3331.08C5138.72 3313.4 5115.65 3294.31 5122.63 3195.33C5140.21 2945.88 5138.38 2691.34 5132.63 2440.75C5122.93 2018.4 5139.33 1595.92 5122 1173.74Z" fill="black"/>
<path d="M3944.15 743.905C4247.58 738.827 4556.35 690.759 4857.78 660C4982.71 660 5012.88 895.801 5041.91 986.298C5089.8 1135.61 5093.61 1285.69 5110.08 1440.78C5118.09 1516.21 5120.56 1594.38 5132.8 1669.19C5134.21 1677.8 5146.52 1704.49 5139.8 1712.89C5118.3 1739.77 4914.69 1674.02 4888.08 1670.36C4678.28 1641.52 4471.9 1599.11 4263.45 1566.64C4227.22 1561 4176.05 1544.22 4176.05 1589.95C4176.05 1632.15 4165.56 1674.29 4165.56 1714.64C4165.56 1766.9 4194.71 1750.77 4243.64 1750.77C4350.55 1750.77 4452.19 1757.97 4558.29 1769.41C4675.46 1782.05 4791.44 1797.39 4907.89 1816.03C5004.01 1831.41 5098.07 1840.28 5182.33 1891.19C5191.87 1896.96 5297.12 1933.82 5297.12 1946.55C5297.12 2004.87 5261.7 2077.5 5245.84 2133C5227.1 2198.61 5209.82 2265.43 5187.58 2329.95C5174.36 2368.27 4990.63 2301.77 4968.49 2296.15C4830.92 2261.23 4691.86 2256.93 4551.3 2243.71C4453.72 2234.53 4358.11 2217.58 4259.96 2212.83C4183.39 2209.12 4091.53 2216.82 4019.9 2183.11C4004.39 2175.81 4008.24 2172.67 4008.24 2192.43V2192.81C4008.24 2250.04 4008.24 2513.1 4066.51 2505.33C4265.04 2478.86 4466.34 2480.31 4666.67 2487.27C4776.95 2491.1 4886.68 2503.15 4997.04 2505.33C5073.65 2506.85 5150.43 2503.74 5226.03 2518.73C5295.42 2532.49 5319.26 2522.81 5319.26 2590.98C5319.26 2732.14 5313.01 2875.09 5325.67 3015.75C5328.96 3052.28 5387.64 3337.92 5343.73 3353.12C5250.59 3385.37 5143.79 3419.34 5044.24 3421.88C4946.07 3424.38 4849.52 3409.94 4751.74 3404.98C4557.92 3395.16 4363.81 3407 4170.23 3416.05C3926.89 3427.42 3682.65 3434.94 3439.55 3451.01C3360.77 3456.22 3282.85 3480.22 3204.15 3481.31C3173.54 3481.74 3188.55 3461.08 3189.58 3438.78C3205.4 3098.71 3198.49 2755.63 3208.81 2415.02C3218.9 2082.27 3243.96 1750.16 3255.43 1417.48C3261.36 1245.4 3264.5 1073.25 3271.74 901.227C3272.92 873.315 3266.62 830.279 3274.66 802.173C3283.94 769.679 3465.65 746.666 3497.24 744.488C3645.24 734.281 3795.89 746.386 3944.15 743.905Z" fill="black"/>
<path d="M6923.84 2282.55C6909.28 1769.95 6883.37 1260.12 6890.09 746.56C6935.08 762.825 6905.7 752.331 6951.81 766.498C6996.31 791.684 6982.91 782.239 7013.47 793.783C7034.61 796.541 7113.37 827.934 7133.16 841.335C7179.38 872.655 7239.62 905.748 7277.49 945.284C7324.35 994.191 7370 1049.88 7418.71 1097.54C7526.39 1202.92 7598.01 1338.58 7694.88 1453.41C7749.43 1518.06 7783.38 1590.04 7846.72 1649.07C7900.67 1699.35 7956.31 1747.46 8009.8 1798.27C8023.78 1811.54 8108.44 1880.03 8136.02 1855.75C8154.24 1839.7 8161.51 1800.5 8166.63 1779.31C8183.77 1708.52 8212.2 1639.66 8219.74 1567.14C8235.68 1413.99 8254.55 1262.35 8284.73 1110.99C8312.12 973.611 8363.46 837.059 8363.46 695.808C8363.46 657.25 8387.91 673.31 8419.69 680.522C8496.57 697.966 8576.79 706.349 8654.63 719.044C8727.96 731.004 8830.97 739.385 8898.32 771.018C8909.28 776.166 8903.32 814.195 8903.32 824.215C8903.32 891.818 8899.76 960.374 8903.94 1027.83C8923.54 1344.34 8864.17 1685.86 8894.39 2002.69C8867.08 2148 8858.33 2362.61 8858.33 2510.01V2866.49C8858.33 2976.05 8871.45 3142.65 8810.84 3238.87C8777.1 3292.43 8613.95 3234.84 8570.9 3233.98C8515.15 3232.86 8328.38 3274.82 8318.47 3189.95C8313.45 3146.98 8279.63 3132.85 8257.23 3099.46C8204.89 3021.4 8164.34 2928.7 8114.77 2847.53C7998.87 2657.75 7916.31 2447.74 7783.61 2267.26C7761.23 2236.82 7711.09 2194.45 7688.63 2151.3C7688.58 2332.25 7685.67 2506.54 7656.14 2686.11C7633.61 2823.14 7630 2983.69 7644.27 3123.3C7650.35 3182.78 7686.37 3242.61 7688.63 3302.46C7690.38 3348.46 7681.84 3333.03 7628.65 3333.03C7463.12 3333.03 7273.25 3353.56 7115.03 3301.24C7029 3272.79 7013.81 3254.52 7013.81 3175.28C7013.81 3080.06 7020.31 2982.31 6997.57 2889.11C6973.5 2790.48 6971.26 2698.78 6962.57 2598.06C6953.5 2492.81 6926.82 2387.87 6923.84 2282.55Z" fill="black"/>
<path d="M8938.37 2987.99C8977.09 2909.99 9082.32 2866.19 9158.41 2840C9209.83 2860.99 9193.93 2848.63 9225.92 2868.74C9238.4 2876.59 9288.85 2938.86 9293.43 2950.08C9312.5 2996.7 9359.47 3048.94 9360.94 3099.29C9362.81 3163.12 9316.92 3214.05 9290.93 3266.85C9252.22 3345.51 9160.39 3335.34 9087.77 3335.34C9048.34 3335.34 8982.47 3344.38 8967.12 3295.59C8938.82 3205.6 8892.5 3080.36 8938.37 2987.99Z" fill="black"/>
<path d="M9731.69 1531.79C9678.69 1493.03 9693.26 1508.69 9683.05 1436.12C9683.05 1385.53 9642.69 1313.29 9662.08 1285.79C9685.69 1280.28 9981.26 1299.78 10018.7 1299.78C10175.3 1299.78 10331.6 1310.01 10484.8 1344.06C10534.3 1355.07 10582.4 1372.08 10631.6 1383.68C10665.3 1391.6 10648 1510.19 10648 1538.09C10648 1557.75 10634.6 1670.35 10658.5 1677.35C10586.6 1677.35 10451.9 1702.04 10385.8 1685.51C10381 1684.31 10346.9 1803.87 10344.4 1830.01C10323.8 2046.51 10278.6 2264.46 10301.9 2483.19C10311.9 2577.96 10318.4 2678.29 10398.6 2741.31C10459.9 2789.46 10532.8 2816.28 10606 2841.53C10645 2854.99 10731.9 2873.2 10731.9 2926.6C10731.9 3000.78 10732.8 3075.02 10731.9 3149.19C10730.8 3235.7 10674 3255.17 10594.4 3260.48C10483.8 3267.85 10369.4 3280.33 10258.7 3282.04C10132.1 3283.98 10006.8 3276.34 9880.58 3272.13C9772.74 3268.54 9672.33 3283.72 9580.5 3219.11C9545.57 3194.53 9554.71 3087.1 9546.71 3051.88C9539.14 3018.56 9519.01 2955.54 9553.7 2930.1C9617.21 2883.52 9686.72 2838.29 9754.14 2797.25L9755.23 2796.59C9774.31 2784.98 9824.14 2754.68 9829.31 2731.41C9860.57 2590.73 9871.84 2445.99 9871.84 2300.81C9871.84 2176.69 9910.24 2059.83 9930.11 1938.39C9940.06 1877.56 9938.96 1816.49 9949.92 1755.43C9957.61 1712.57 9974.39 1660.37 9974.39 1617.33C9974.39 1578.52 9814.6 1571.24 9780.69 1554.29C9749.79 1538.84 9759.27 1551.96 9731.69 1531.79Z" fill="black"/>
<path d="M10071.1 903.558C10062.6 779.982 10163.6 699.459 10274.2 668.622C10313.5 690.163 10348.8 693.345 10380.5 742.74C10401.3 775.033 10456.8 813.84 10459.2 853.448C10464.8 946.428 10458.8 1038.19 10354.3 1087.68C10316.2 1105.74 10232 1088.54 10197 1073.7C10118.9 1040.66 10077.2 992.166 10071.1 903.558Z" fill="black"/>
<path fill-rule="evenodd" clip-rule="evenodd" d="M11452.7 1307.67C11324.6 1281.37 11193.9 1272.33 11067.6 1311.53C10975.5 1340.13 10860.1 1398.06 10794.9 1472.93C10718.3 1560.97 10675.6 1651.5 10628.6 1751.17C10617.3 1775.17 10605.7 1799.71 10593.3 1824.87C10532.6 1948.43 10493.6 2087.62 10482 2224C10480.1 2246.53 10477.9 2269.6 10475.7 2293.07C10455.6 2505.99 10432.4 2751.35 10582.3 2916.22C10612.8 2949.86 10640.4 2984.65 10667.6 3019.03C10731.3 3099.46 10793.2 3177.68 10888.2 3233.77C10945.9 3267.91 11067.5 3270.35 11131.7 3265.24C11397.6 3244.09 11721.6 3104.51 11842.6 2851.54C11866.4 2801.64 11896.7 2756.89 11927.2 2711.8C11939.7 2693.31 11952.2 2674.75 11964.4 2655.76C11986.3 2621.44 11994.7 2580.09 12002.9 2539.71C12005.9 2524.51 12009 2509.45 12012.7 2494.94C12042.4 2379.62 12041.2 2264.85 12040 2147.35C12039.8 2123.88 12039.5 2100.3 12039.5 2076.58C12039.5 1943.72 12004.5 1832.3 11955.6 1709.5C11924.2 1630.54 11870.3 1545.29 11812.9 1483.42C11776.6 1444.34 11716.5 1421.95 11659.7 1400.82C11632.2 1390.57 11605.5 1380.62 11582.7 1369.22C11573.9 1364.82 11565.2 1359.08 11556.4 1353.27C11541.6 1343.54 11526.6 1333.63 11510.5 1329.59C11502.7 1327.67 11495.2 1327.39 11488.2 1327.13C11472.5 1326.55 11459.4 1326.07 11452.7 1307.67ZM11193.2 1896.21C11156.5 1957.46 11120.6 2017.44 11093.3 2084.74C11086.1 2102.4 11075.5 2120.71 11064.7 2139.31C11046.9 2170.14 11028.5 2201.79 11024.5 2232.74C11021.3 2257.11 11015.1 2282.32 11008.8 2307.74C10998.6 2349.13 10988.3 2391.07 10990.7 2430.85C10993.9 2483.52 11026.7 2511.05 11061.5 2540.25C11071.6 2548.68 11081.8 2557.26 11091.5 2566.61C11163.6 2635.98 11255.6 2683.64 11360.1 2667.41C11446.2 2654.06 11490.2 2592.2 11533.9 2530.74C11539.6 2522.65 11545.4 2514.56 11551.2 2506.6C11591.6 2451.6 11603 2392.79 11615.1 2331C11618.3 2314.76 11621.5 2298.32 11625.2 2281.68C11643.8 2199.92 11660 2093.23 11620 2019.48C11587.3 1959.22 11505 1872.65 11430.6 1872.65C11390.9 1872.65 11367.3 1869.7 11331 1852.25C11298.4 1836.6 11261.3 1835.54 11225.3 1842.22C11214.7 1860.46 11203.9 1878.39 11193.2 1896.21Z" fill="black"/>
<path d="M830.599 421.539C1641.05 310.875 2440.11 163.843 3261.52 193.713C3296 194.967 3294.38 193.713 3310 193.713C3370.57 193.713 3368.66 240.21 3412.43 287.523C3464.35 343.648 3505.56 394.222 3541.2 464.074C3613.81 606.392 3742.69 707.565 3815.06 848.639C3855.98 928.417 3893.16 1013.57 3916.44 1100.35C3919.69 1112.45 3949.3 1184.95 3940.92 1195.91C3930.84 1209.09 3883.55 1209.99 3869.83 1213.39C3824.44 1224.64 3778.95 1237.54 3734.65 1252.43C3542.71 1316.96 3361.27 1407.14 3167.12 1466.27C3058.13 1499.47 2948.01 1523.88 2836.16 1544.94C2817.03 1548.54 2765.3 1543.41 2779.06 1557.17C2803.81 1581.92 2811.09 1627.62 2822.76 1660.89C2880.4 1825.14 2967.04 1978.74 3040.1 2136.35C3123.85 2317 3173.09 2495.82 3219.56 2688.73C3231.89 2739.9 3346.16 3070.75 3276.08 3090.77C3203.93 3111.39 3136.43 3144.76 3064.57 3166.52C2962.61 3197.39 2857.71 3214.58 2753.42 3235.27C2624.62 3260.83 2499.19 3297.67 2371.19 3326.17C2334.91 3334.25 2299.64 3341.26 2262.81 3334.91C2253.05 3333.23 2227.4 3333.57 2218.53 3328.5C2205.81 3321.23 2195.37 3249.23 2193.47 3242.85C2169.08 3160.64 2138.75 3080.24 2108.99 2999.87C2045.69 2828.98 1977.21 2659.9 1926.03 2484.79C1883 2337.58 1851.43 2187.59 1799 2043.12C1749.24 1905.99 1686.48 1759.94 1595.65 1643.99C1583.25 1628.17 1572.46 1618.44 1554.28 1611.94C1539.61 1606.7 1520.46 1609.61 1505.34 1609.61C1365.24 1609.61 1226.54 1653.95 1090.47 1681.86C964.603 1707.68 839.266 1731.5 710.568 1734.89C700.584 1735.15 656.247 1741.05 644.143 1730.81C611.32 1703.04 599.963 1586.62 586.458 1546.1C520.572 1348.44 440.645 1156.02 364.459 962.261C308.54 820.047 258.92 672.615 226.948 522.924C218.107 481.536 216.94 469.2 259.577 466.405C450.738 453.869 640.104 447.55 830.599 421.539Z" fill="white" stroke="black" stroke-width="74" stroke-linecap="round"/>
<path d="M5344 1029.74C5331.72 730.443 5329.4 433.676 5353.78 135.109C5432.14 104.293 5539.58 144.871 5622.72 119.839C5653.45 110.589 5660.03 123.334 5667.72 150.413C5690.12 229.339 5740.23 317.335 5782.7 387.672C5870.26 532.655 6014.55 636.771 6077.67 797.371C6110.46 880.798 6349.72 668.003 6360.14 659.174C6455.27 578.603 6545.33 492.496 6640.73 412.132C6735.28 332.49 6838.45 261.694 6927.58 176.096C6971.79 133.633 7010.06 78.7328 7059.44 41.5678C7083.15 23.7184 7128.04 63.1563 7145.05 74.5883C7226.89 129.598 7305.04 186.359 7392.52 232.965C7453.3 265.344 7530.02 292.106 7582.5 337.53C7619.22 369.311 7378.51 525.282 7375.03 528.315C7225.94 658.249 7088.13 799.087 6933.82 923.339C6839.49 999.296 6737.6 1067.14 6650.11 1150.81C6621.99 1177.71 6346.62 1428.99 6398.26 1462.67C6447.51 1494.8 6494.28 1531.61 6541.37 1566.63C6697.4 1682.66 6869.87 1774.33 7010.07 1911.51C7189.92 2087.49 7361.1 2281.13 7525.63 2471.02C7672.28 2640.27 7841.66 2772.51 8033.7 2888.67C8048.74 2897.77 8114.23 2929.05 8119.94 2948.6C8123.15 2959.59 7994.58 2993.73 7986.83 2996.29C7806.59 3055.88 7622.34 3081.85 7444.39 3150.39C7281.21 3213.24 7091.59 3272.94 6915.08 3286.75C6850.72 3291.79 6833.12 3218.47 6801.96 3170.57C6659.23 2951.1 6473.3 2757.72 6362.01 2519.94C6342.99 2479.3 6294.81 2293.21 6246.4 2278.4C6227.86 2272.73 6211.89 2371.66 6210.78 2380.52C6191.27 2536.42 6186.6 2694.89 6170.79 2851.37C6158.89 2969.11 6159.04 3092.62 6142.04 3209.09C6137.92 3237.3 6013.28 3221.32 5994.56 3221.32C5821.29 3221.32 5636.07 3215.97 5465.24 3187.08C5360.72 3169.4 5337.65 3150.31 5344.63 3051.33C5362.21 2801.88 5360.38 2547.34 5354.63 2296.75C5344.93 1874.4 5361.33 1451.92 5344 1029.74Z" fill="white"/>
<path d="M5355.25 117.393C5329.32 421.939 5331.48 724.523 5344 1029.74C5361.33 1451.92 5344.93 1874.4 5354.63 2296.75C5360.38 2547.34 5362.21 2801.88 5344.63 3051.33C5337.65 3150.31 5360.72 3169.4 5465.24 3187.08C5636.07 3215.97 5821.29 3221.32 5994.56 3221.32C6013.28 3221.32 6137.92 3237.3 6142.04 3209.09C6159.04 3092.62 6158.89 2969.11 6170.79 2851.37C6186.6 2694.89 6191.27 2536.42 6210.78 2380.52C6211.89 2371.66 6227.86 2272.73 6246.4 2278.4C6294.81 2293.21 6342.99 2479.3 6362.01 2519.94C6473.3 2757.72 6659.23 2951.1 6801.96 3170.57C6833.12 3218.47 6850.72 3291.79 6915.08 3286.75C7091.59 3272.94 7281.21 3213.24 7444.39 3150.39C7622.34 3081.85 7806.59 3055.88 7986.83 2996.29C7994.58 2993.73 8123.15 2959.59 8119.94 2948.6C8114.23 2929.05 8048.74 2897.77 8033.7 2888.67C7841.66 2772.51 7672.28 2640.27 7525.63 2471.02C7361.1 2281.13 7189.92 2087.49 7010.07 1911.51C6869.87 1774.33 6697.4 1682.66 6541.37 1566.63C6494.28 1531.61 6447.51 1494.8 6398.26 1462.67C6346.62 1428.99 6621.99 1177.71 6650.11 1150.81C6737.6 1067.14 6839.49 999.296 6933.82 923.339C7088.13 799.087 7225.94 658.249 7375.03 528.315C7378.51 525.282 7619.22 369.311 7582.5 337.53C7530.02 292.106 7453.3 265.344 7392.52 232.965C7305.04 186.359 7226.89 129.598 7145.05 74.5883C7128.04 63.1563 7083.15 23.7184 7059.44 41.5678C7010.06 78.7328 6971.79 133.633 6927.58 176.096C6838.45 261.694 6735.28 332.49 6640.73 412.132C6545.33 492.496 6455.27 578.603 6360.14 659.174C6349.72 668.003 6110.46 880.798 6077.67 797.371C6014.55 636.771 5870.26 532.655 5782.7 387.672C5740.23 317.335 5690.12 229.339 5667.72 150.413C5660.03 123.334 5653.45 110.589 5622.72 119.839C5536.07 145.929 5423.02 100.748 5344 139.406" stroke="black" stroke-width="74" stroke-linecap="round"/>
<path d="M4166.15 599.905C4469.58 594.827 4778.35 546.759 5079.78 516C5204.71 516 5234.88 751.801 5263.91 842.298C5311.8 991.609 5315.61 1141.69 5332.08 1296.78C5340.09 1372.21 5342.56 1450.38 5354.8 1525.19C5356.21 1533.8 5368.52 1560.49 5361.8 1568.89C5340.3 1595.77 5136.69 1530.02 5110.08 1526.36C4900.28 1497.52 4693.9 1455.11 4485.45 1422.64C4449.22 1417 4398.05 1400.22 4398.05 1445.95C4398.05 1488.15 4387.56 1530.29 4387.56 1570.64C4387.56 1622.9 4416.71 1606.77 4465.64 1606.77C4572.55 1606.77 4674.19 1613.97 4780.29 1625.41C4897.46 1638.05 5013.44 1653.39 5129.89 1672.03C5226.01 1687.41 5320.07 1696.28 5404.33 1747.19C5413.87 1752.96 5519.12 1789.82 5519.12 1802.55C5519.12 1860.87 5483.7 1933.5 5467.84 1989C5449.1 2054.61 5431.82 2121.43 5409.58 2185.95C5396.36 2224.27 5212.63 2157.77 5190.49 2152.15C5052.92 2117.23 4913.86 2112.93 4773.3 2099.71C4675.72 2090.53 4580.11 2073.58 4481.96 2068.83C4405.39 2065.12 4313.53 2072.82 4241.9 2039.11C4226.39 2031.81 4230.24 2028.67 4230.24 2048.43V2048.81C4230.24 2106.04 4230.24 2369.1 4288.51 2361.33C4487.04 2334.86 4688.34 2336.31 4888.67 2343.27C4998.95 2347.1 5108.68 2359.15 5219.04 2361.33C5295.65 2362.85 5372.43 2359.74 5448.03 2374.73C5517.42 2388.49 5541.26 2378.81 5541.26 2446.98C5541.26 2588.14 5535.01 2731.09 5547.67 2871.75C5550.96 2908.28 5609.64 3193.92 5565.73 3209.12C5472.59 3241.37 5365.79 3275.34 5266.24 3277.88C5168.07 3280.38 5071.52 3265.94 4973.74 3260.98C4779.92 3251.16 4585.81 3263 4392.23 3272.05C4148.89 3283.42 3904.65 3290.94 3661.55 3307.01C3582.77 3312.22 3504.85 3336.22 3426.15 3337.31C3395.54 3337.74 3410.55 3317.08 3411.58 3294.78C3427.4 2954.71 3420.49 2611.63 3430.81 2271.02C3440.9 1938.27 3465.96 1606.16 3477.43 1273.48C3483.36 1101.4 3486.5 929.253 3493.74 757.227C3494.92 729.315 3488.62 686.279 3496.66 658.173C3505.94 625.679 3687.65 602.666 3719.24 600.488C3867.24 590.281 4017.89 602.386 4166.15 599.905Z" fill="white" stroke="black" stroke-width="74" stroke-linecap="round"/>
<path d="M7145.84 2138.55C7131.28 1625.95 7105.37 1116.12 7112.09 602.56C7157.08 618.825 7127.7 608.331 7173.81 622.498C7218.31 647.684 7204.91 638.239 7235.47 649.783C7256.61 652.541 7335.37 683.934 7355.16 697.335C7401.38 728.655 7461.62 761.748 7499.49 801.284C7546.35 850.191 7592 905.876 7640.71 953.537C7748.39 1058.92 7820.01 1194.58 7916.88 1309.41C7971.43 1374.06 8005.38 1446.04 8068.72 1505.07C8122.67 1555.35 8178.31 1603.46 8231.8 1654.27C8245.78 1667.54 8330.44 1736.03 8358.02 1711.75C8376.24 1695.7 8383.51 1656.5 8388.63 1635.31C8405.77 1564.52 8434.2 1495.66 8441.74 1423.14C8457.68 1269.99 8476.55 1118.35 8506.73 966.989C8534.12 829.611 8585.46 693.059 8585.46 551.808C8585.46 513.25 8609.91 529.31 8641.69 536.522C8718.57 553.966 8798.79 562.349 8876.63 575.044C8949.96 587.004 9052.97 595.385 9120.32 627.018C9131.28 632.166 9125.32 670.195 9125.32 680.215C9125.32 747.818 9121.76 816.374 9125.94 883.831C9145.54 1200.34 9086.17 1541.86 9116.39 1858.69C9089.08 2004 9080.33 2218.61 9080.33 2366.01V2722.49C9080.33 2832.05 9093.45 2998.65 9032.84 3094.87C8999.1 3148.43 8835.95 3090.84 8792.9 3089.98C8737.15 3088.86 8550.38 3130.82 8540.47 3045.95C8535.45 3002.98 8501.63 2988.85 8479.23 2955.46C8426.89 2877.4 8386.34 2784.7 8336.77 2703.53C8220.87 2513.75 8138.31 2303.74 8005.61 2123.26C7983.23 2092.82 7933.09 2050.45 7910.63 2007.3C7910.58 2188.25 7907.67 2362.54 7878.14 2542.11C7855.61 2679.14 7852 2839.69 7866.27 2979.3C7872.35 3038.78 7908.37 3098.61 7910.63 3158.46C7912.38 3204.46 7903.84 3189.03 7850.65 3189.03C7685.12 3189.03 7495.25 3209.56 7337.03 3157.24C7251 3128.79 7235.81 3110.52 7235.81 3031.28C7235.81 2936.06 7242.31 2838.31 7219.57 2745.11C7195.5 2646.48 7193.26 2554.78 7184.57 2454.06C7175.5 2348.81 7148.82 2243.87 7145.84 2138.55Z" fill="white"/>
<path d="M7112.09 602.559C7105.37 1116.12 7131.28 1625.94 7145.84 2138.55C7148.82 2243.87 7175.5 2348.81 7184.57 2454.06C7193.26 2554.78 7195.5 2646.48 7219.57 2745.11C7242.31 2838.31 7235.81 2936.06 7235.81 3031.28C7235.81 3110.52 7251 3128.79 7337.03 3157.24C7495.25 3209.56 7685.12 3189.03 7850.65 3189.03C7903.84 3189.03 7912.38 3204.46 7910.63 3158.46C7908.37 3098.61 7872.35 3038.78 7866.27 2979.3C7852 2839.69 7855.61 2679.14 7878.14 2542.11C7907.98 2360.65 7910.63 2184.57 7910.63 2001.58C7910.63 1994.63 7899.39 1949.92 7899.39 1967.34C7899.39 2023.08 7976.3 2083.4 8005.61 2123.26C8138.31 2303.74 8220.87 2513.75 8336.77 2703.53C8386.34 2784.7 8426.89 2877.4 8479.23 2955.46C8501.63 2988.85 8535.45 3002.98 8540.47 3045.95C8550.38 3130.82 8737.15 3088.86 8792.9 3089.98C8835.95 3090.84 8999.1 3148.43 9032.84 3094.87C9093.45 2998.65 9080.33 2832.05 9080.33 2722.49C9080.33 2603.66 9080.33 2484.84 9080.33 2366.01C9080.33 2218.61 9089.08 2004 9116.39 1858.69C9086.17 1541.86 9145.54 1200.34 9125.94 883.831C9121.76 816.374 9125.32 747.818 9125.32 680.215C9125.32 670.195 9131.28 632.166 9120.32 627.018C9052.97 595.385 8949.96 587.004 8876.63 575.044C8798.79 562.349 8718.57 553.966 8641.69 536.522C8609.91 529.31 8585.46 513.25 8585.46 551.808C8585.46 693.059 8534.12 829.611 8506.73 966.989C8476.55 1118.35 8457.68 1269.99 8441.74 1423.14C8434.2 1495.66 8405.77 1564.52 8388.63 1635.31C8383.51 1656.5 8376.24 1695.7 8358.02 1711.75C8330.44 1736.03 8245.78 1667.54 8231.8 1654.27C8178.31 1603.46 8122.67 1555.35 8068.72 1505.07C8005.38 1446.04 7971.43 1374.06 7916.88 1309.41C7820.01 1194.58 7748.39 1058.92 7640.71 953.537C7592 905.876 7546.35 850.191 7499.49 801.284C7461.62 761.748 7401.38 728.655 7355.16 697.335C7335.37 683.934 7256.61 652.541 7235.47 649.782C7204.91 638.239 7218.31 647.684 7173.81 622.498C7127.7 608.331 7157.08 618.825 7112.09 602.559" stroke="black" stroke-width="74" stroke-linecap="round"/>
<path d="M9160.37 2843.99C9199.09 2765.99 9304.32 2722.19 9380.41 2696C9431.83 2716.99 9415.93 2704.63 9447.92 2724.74C9460.4 2732.59 9510.85 2794.86 9515.43 2806.08C9534.5 2852.7 9581.47 2904.94 9582.94 2955.29C9584.81 3019.12 9538.92 3070.05 9512.93 3122.85C9474.22 3201.51 9382.39 3191.34 9309.77 3191.34C9270.34 3191.34 9204.47 3200.38 9189.12 3151.59C9160.82 3061.6 9114.5 2936.36 9160.37 2843.99Z" fill="white" stroke="black" stroke-width="74" stroke-linecap="round"/>
<path d="M9953.69 1387.79C9900.69 1349.03 9915.26 1364.69 9905.05 1292.12C9905.05 1241.53 9864.69 1169.29 9884.08 1141.79C9907.69 1136.28 10203.3 1155.78 10240.7 1155.78C10397.3 1155.78 10553.6 1166.01 10706.8 1200.06C10756.3 1211.07 10804.4 1228.08 10853.6 1239.68C10887.3 1247.6 10870 1366.19 10870 1394.09C10870 1413.75 10856.6 1526.35 10880.5 1533.35C10808.6 1533.35 10673.9 1558.04 10607.8 1541.51C10603 1540.31 10568.9 1659.87 10566.4 1686.01C10545.8 1902.51 10500.6 2120.46 10523.9 2339.19C10533.9 2433.96 10540.4 2534.29 10620.6 2597.31C10681.9 2645.46 10754.8 2672.28 10828 2697.53C10867 2710.99 10953.9 2729.2 10953.9 2782.6C10953.9 2856.78 10954.8 2931.02 10953.9 3005.19C10952.8 3091.7 10896 3111.17 10816.4 3116.48C10705.8 3123.85 10591.4 3136.33 10480.7 3138.04C10354.1 3139.98 10228.8 3132.34 10102.6 3128.13C9994.74 3124.54 9894.33 3139.72 9802.5 3075.11C9767.57 3050.53 9776.71 2943.1 9768.71 2907.88C9761.14 2874.56 9741.01 2811.54 9775.7 2786.1C9839.21 2739.52 9908.72 2694.29 9976.14 2653.25L9977.23 2652.59C9996.31 2640.98 10046.1 2610.68 10051.3 2587.41C10082.6 2446.73 10093.8 2301.99 10093.8 2156.81C10093.8 2032.69 10132.2 1915.83 10152.1 1794.39C10162.1 1733.56 10161 1672.49 10171.9 1611.43C10179.6 1568.57 10196.4 1516.37 10196.4 1473.33C10196.4 1434.52 10036.6 1427.24 10002.7 1410.29C9971.79 1394.84 9981.27 1407.96 9953.69 1387.79Z" fill="white" stroke="black" stroke-width="74" stroke-linecap="round"/>
<path d="M10204.5 841.558C10196 717.982 10297 637.459 10407.6 606.622C10446.9 628.163 10482.1 631.345 10513.9 680.74C10534.7 713.033 10590.2 751.84 10592.6 791.448C10598.2 884.428 10592.2 976.186 10487.7 1025.68C10449.6 1043.74 10365.4 1026.54 10330.4 1011.7C10252.3 978.656 10210.6 930.166 10204.5 841.558Z" fill="white"/>
<path d="M10445.7 598C10321.5 619.6 10195 703.846 10204.5 841.558C10210.6 930.166 10252.3 978.656 10330.4 1011.7C10365.4 1026.54 10449.6 1043.74 10487.7 1025.68C10592.2 976.186 10598.2 884.428 10592.6 791.448C10590.2 751.84 10534.7 713.033 10513.9 680.74C10478.4 625.441 10438.4 628.062 10393.3 598" stroke="black" stroke-width="74" stroke-linecap="round"/>
<path fill-rule="evenodd" clip-rule="evenodd" d="M11674.7 1163.67C11546.6 1137.37 11415.9 1128.33 11289.6 1167.53C11197.5 1196.13 11082.1 1254.06 11016.9 1328.93C10940.3 1416.97 10897.6 1507.5 10850.6 1607.17C10839.3 1631.17 10827.7 1655.71 10815.3 1680.87C10754.6 1804.43 10715.6 1943.62 10704 2080C10702.1 2102.53 10699.9 2125.6 10697.7 2149.07C10677.6 2361.99 10654.4 2607.35 10804.3 2772.22C10834.8 2805.86 10862.4 2840.65 10889.6 2875.03C10953.3 2955.46 11015.2 3033.68 11110.2 3089.77C11167.9 3123.91 11289.5 3126.35 11353.7 3121.24C11619.6 3100.09 11943.6 2960.51 12064.6 2707.54C12088.4 2657.64 12118.7 2612.89 12149.2 2567.8C12161.7 2549.31 12174.2 2530.75 12186.4 2511.76C12208.3 2477.44 12216.7 2436.09 12224.9 2395.71C12227.9 2380.51 12231 2365.45 12234.7 2350.94C12264.4 2235.62 12263.2 2120.85 12262 2003.35C12261.8 1979.88 12261.5 1956.3 12261.5 1932.58C12261.5 1799.72 12226.5 1688.3 12177.6 1565.5C12146.2 1486.54 12092.3 1401.29 12034.9 1339.42C11998.6 1300.34 11938.5 1277.95 11881.7 1256.82C11854.2 1246.57 11827.5 1236.62 11804.7 1225.22C11795.9 1220.82 11787.2 1215.08 11778.4 1209.27C11763.6 1199.54 11748.6 1189.63 11732.5 1185.59C11724.7 1183.67 11717.2 1183.39 11710.2 1183.13C11694.5 1182.55 11681.4 1182.07 11674.7 1163.67ZM11415.2 1752.21C11378.5 1813.46 11342.6 1873.44 11315.3 1940.74C11308.1 1958.4 11297.5 1976.71 11286.7 1995.31C11268.9 2026.14 11250.5 2057.79 11246.5 2088.74C11243.3 2113.11 11237.1 2138.32 11230.8 2163.74C11220.6 2205.13 11210.3 2247.07 11212.7 2286.85C11215.9 2339.52 11248.7 2367.05 11283.5 2396.25C11293.6 2404.68 11303.8 2413.26 11313.5 2422.61C11385.6 2491.98 11477.6 2539.64 11582.1 2523.41C11668.2 2510.06 11712.2 2448.2 11755.9 2386.74C11761.7 2378.65 11767.4 2370.56 11773.2 2362.6C11813.6 2307.6 11825 2248.79 11837.1 2187C11840.3 2170.76 11843.5 2154.32 11847.2 2137.68C11865.8 2055.92 11882 1949.23 11842 1875.48C11809.3 1815.22 11727 1728.65 11652.6 1728.65C11612.9 1728.65 11589.3 1725.7 11553 1708.25C11520.4 1692.6 11483.3 1691.54 11447.3 1698.22C11436.7 1716.46 11425.9 1734.39 11415.2 1752.21Z" fill="white"/>
<path d="M11289.6 1167.53L11278.7 1132.19L11278.7 1132.19L11289.6 1167.53ZM11674.7 1163.67L11709.4 1150.94L11702.3 1131.58L11682.1 1127.43L11674.7 1163.67ZM11016.9 1328.93L11044.8 1353.22L11044.8 1353.22L11016.9 1328.93ZM10850.6 1607.17L10884 1622.96L10884 1622.96L10850.6 1607.17ZM10815.3 1680.87L10782.1 1664.55L10782.1 1664.55L10815.3 1680.87ZM10704 2080L10740.9 2083.12L10740.9 2083.12L10704 2080ZM10697.7 2149.07L10660.9 2145.59L10660.9 2145.59L10697.7 2149.07ZM10804.3 2772.22L10831.6 2747.33L10831.6 2747.33L10804.3 2772.22ZM10889.6 2875.03L10860.6 2898L10860.6 2898L10889.6 2875.03ZM11110.2 3089.77L11091.3 3121.63L11091.3 3121.63L11110.2 3089.77ZM11353.7 3121.24L11356.7 3158.12L11356.7 3158.12L11353.7 3121.24ZM12064.6 2707.54L12031.2 2691.58L12031.2 2691.58L12064.6 2707.54ZM12149.2 2567.8L12118.5 2547.08L12118.5 2547.08L12149.2 2567.8ZM12186.4 2511.76L12217.5 2531.71L12217.5 2531.71L12186.4 2511.76ZM12224.9 2395.71L12188.6 2388.37L12188.6 2388.37L12224.9 2395.71ZM12234.7 2350.94L12270.6 2360.17L12270.6 2360.17L12234.7 2350.94ZM12262 2003.35L12299 2002.96L12299 2002.96L12262 2003.35ZM12177.6 1565.5L12143.2 1579.17L12143.2 1579.17L12177.6 1565.5ZM12034.9 1339.42L12007.8 1364.6L12007.8 1364.6L12034.9 1339.42ZM11881.7 1256.82L11868.8 1291.49L11868.8 1291.49L11881.7 1256.82ZM11804.7 1225.22L11821.3 1192.12L11821.3 1192.12L11804.7 1225.22ZM11778.4 1209.27L11798.8 1178.38L11798.8 1178.38L11778.4 1209.27ZM11732.5 1185.59L11723.5 1221.49L11723.5 1221.49L11732.5 1185.59ZM11710.2 1183.13L11711.5 1146.15L11711.5 1146.15L11710.2 1183.13ZM11315.3 1940.74L11349.5 1954.67L11349.5 1954.67L11315.3 1940.74ZM11415.2 1752.21L11383.5 1733.19L11383.5 1733.19L11415.2 1752.21ZM11286.7 1995.31L11254.7 1976.77L11254.7 1976.77L11286.7 1995.31ZM11246.5 2088.74L11209.8 2083.95L11209.8 2083.95L11246.5 2088.74ZM11230.8 2163.74L11266.8 2172.59L11266.8 2172.59L11230.8 2163.74ZM11212.7 2286.85L11249.6 2284.61L11249.6 2284.61L11212.7 2286.85ZM11283.5 2396.25L11307.3 2367.9L11307.3 2367.9L11283.5 2396.25ZM11313.5 2422.61L11339.2 2395.96L11339.2 2395.96L11313.5 2422.61ZM11582.1 2523.41L11576.5 2486.85L11576.5 2486.85L11582.1 2523.41ZM11755.9 2386.74L11786 2408.19L11786 2408.19L11755.9 2386.74ZM11773.2 2362.6L11803.1 2384.48L11803.1 2384.48L11773.2 2362.6ZM11837.1 2187L11873.4 2194.08L11873.4 2194.08L11837.1 2187ZM11847.2 2137.68L11883.3 2145.88L11883.3 2145.88L11847.2 2137.68ZM11842 1875.48L11809.5 1893.13L11809.5 1893.13L11842 1875.48ZM11553 1708.25L11569 1674.9L11569 1674.9L11553 1708.25ZM11447.3 1698.22L11440.5 1661.83L11423.8 1664.93L11415.3 1679.61L11447.3 1698.22ZM11707.8 1208.81C11727.7 1213.45 11747.5 1201.07 11752.2 1181.17C11756.8 1161.26 11744.4 1141.37 11724.5 1136.74L11707.8 1208.81ZM11674.7 1163.67L11639.9 1176.4L11647 1195.77L11667.2 1199.91L11674.7 1163.67ZM11709.3 1150.59C11702.8 1131.2 11681.9 1120.72 11662.5 1127.18C11643.1 1133.65 11632.6 1154.6 11639.1 1173.99L11709.3 1150.59ZM11486 1705.11C11496.2 1687.38 11490.1 1664.77 11472.4 1654.6C11454.6 1644.43 11432 1650.56 11421.8 1668.28L11486 1705.11ZM11447.3 1698.22L11454 1734.6L11470.7 1731.5L11479.3 1716.82L11447.3 1698.22ZM11343 1695.55C11324.7 1704.69 11317.3 1726.92 11326.5 1745.19C11335.6 1763.47 11357.8 1770.88 11376.1 1761.74L11343 1695.55ZM11300.6 1202.87C11418.4 1166.31 11542 1174.2 11667.2 1199.91L11682.1 1127.43C11551.2 1100.55 11413.5 1090.35 11278.7 1132.19L11300.6 1202.87ZM11044.8 1353.22C11103.6 1285.71 11211.6 1230.5 11300.6 1202.87L11278.7 1132.19C11183.4 1161.76 11060.6 1222.41 10989 1304.64L11044.8 1353.22ZM10884 1622.96C10931.2 1522.9 10972 1436.87 11044.8 1353.22L10989 1304.64C10908.6 1397.07 10864 1492.11 10817.1 1591.38L10884 1622.96ZM10848.5 1697.18C10861 1671.72 10872.7 1646.92 10884 1622.96L10817.1 1591.38C10805.8 1615.43 10794.3 1639.7 10782.1 1664.55L10848.5 1697.18ZM10740.9 2083.12C10752.1 1951.42 10789.8 1816.69 10848.5 1697.18L10782.1 1664.55C10719.4 1792.16 10679.1 1935.82 10667.2 2076.87L10740.9 2083.12ZM10734.6 2152.55C10736.8 2129.12 10739 2105.86 10740.9 2083.12L10667.2 2076.87C10665.3 2099.19 10663.1 2122.08 10660.9 2145.59L10734.6 2152.55ZM10831.6 2747.33C10763.9 2672.83 10734 2578.98 10724.1 2475.13C10714 2370.68 10724.4 2259.69 10734.6 2152.55L10660.9 2145.59C10650.9 2251.37 10639.6 2369.51 10650.4 2482.2C10661.3 2595.47 10694.7 2706.74 10776.9 2797.11L10831.6 2747.33ZM10918.6 2852.06C10891.5 2817.82 10863.2 2782.05 10831.6 2747.33L10776.9 2797.11C10806.5 2829.66 10833.3 2863.47 10860.6 2898L10918.6 2852.06ZM11129 3057.92C11040.8 3005.82 10982.8 2933.11 10918.6 2852.06L10860.6 2898C10923.8 2977.82 10989.6 3061.53 11091.3 3121.63L11129 3057.92ZM11350.8 3084.36C11320.5 3086.76 11276.2 3087.41 11232.9 3083.38C11188.2 3079.23 11150.4 3070.58 11129 3057.92L11091.3 3121.63C11127.7 3143.11 11179.5 3152.74 11226.1 3157.07C11274.1 3161.52 11322.6 3160.83 11356.7 3158.12L11350.8 3084.36ZM12031.2 2691.58C11975.1 2808.88 11870.8 2902 11746.1 2968.69C11621.4 3035.32 11478.9 3074.16 11350.8 3084.36L11356.7 3158.12C11494.4 3147.16 11646.9 3105.64 11780.9 3033.95C11914.9 2962.33 12033.1 2859.18 12098 2723.5L12031.2 2691.58ZM12118.5 2547.08C12088.3 2591.82 12056.4 2638.8 12031.2 2691.58L12098 2723.5C12120.4 2676.48 12149.1 2633.96 12179.8 2588.52L12118.5 2547.08ZM12155.2 2491.82C12143.3 2510.35 12131.1 2528.52 12118.5 2547.08L12179.8 2588.52C12192.3 2570.09 12205.1 2551.15 12217.5 2531.71L12155.2 2491.82ZM12188.6 2388.37C12180.2 2430.13 12172.8 2464.34 12155.2 2491.82L12217.5 2531.71C12243.9 2490.54 12253.2 2442.06 12261.1 2403.05L12188.6 2388.37ZM12198.9 2341.71C12194.9 2357.32 12191.6 2373.35 12188.6 2388.37L12261.1 2403.05C12264.2 2387.67 12267.1 2373.57 12270.6 2360.17L12198.9 2341.71ZM12225 2003.73C12226.2 2121.99 12227.2 2231.88 12198.9 2341.71L12270.6 2360.17C12301.7 2239.37 12300.2 2119.72 12299 2002.96L12225 2003.73ZM12224.5 1932.58C12224.5 1956.52 12224.8 1980.29 12225 2003.73L12299 2002.96C12298.8 1979.46 12298.5 1956.07 12298.5 1932.58H12224.5ZM12143.2 1579.17C12191.5 1700.53 12224.5 1806.75 12224.5 1932.58H12298.5C12298.5 1792.7 12261.4 1676.08 12212 1551.82L12143.2 1579.17ZM12007.8 1364.6C12062.1 1423.11 12113.5 1504.46 12143.2 1579.17L12212 1551.82C12178.9 1468.62 12122.5 1379.47 12062 1314.24L12007.8 1364.6ZM11868.8 1291.49C11928.1 1313.59 11978.7 1333.27 12007.8 1364.6L12062 1314.24C12018.5 1267.41 11948.8 1242.31 11894.6 1222.14L11868.8 1291.49ZM11788.2 1258.31C11813.1 1270.78 11841.8 1281.42 11868.8 1291.49L11894.6 1222.14C11866.7 1211.72 11842 1202.47 11821.3 1192.12L11788.2 1258.31ZM11758 1240.16C11766.4 1245.71 11777 1252.74 11788.2 1258.31L11821.3 1192.12C11814.8 1188.89 11808 1184.45 11798.8 1178.38L11758 1240.16ZM11723.5 1221.49C11732.4 1223.71 11742 1229.62 11758 1240.16L11798.8 1178.38C11785.2 1169.46 11764.8 1155.55 11741.4 1149.7L11723.5 1221.49ZM11708.8 1220.1C11716.3 1220.38 11720.1 1220.64 11723.5 1221.49L11741.4 1149.7C11729.4 1146.69 11718.1 1146.4 11711.5 1146.15L11708.8 1220.1ZM11639.9 1176.4C11646.4 1194.08 11658.2 1207.39 11675 1214.31C11688.4 1219.8 11702.8 1219.88 11708.8 1220.1L11711.5 1146.15C11709.5 1146.08 11708 1146.02 11706.5 1145.94C11705.1 1145.86 11704 1145.77 11703.3 1145.68C11701.6 1145.49 11701.9 1145.36 11703.1 1145.85C11703.8 1146.12 11704.7 1146.55 11705.6 1147.2C11706.6 1147.86 11707.4 1148.61 11708.1 1149.39C11709.6 1150.98 11709.8 1151.94 11709.4 1150.94L11639.9 1176.4ZM11349.5 1954.67C11375.6 1890.43 11410.1 1832.83 11447 1771.23L11383.5 1733.19C11347 1794.08 11309.6 1856.45 11281 1926.81L11349.5 1954.67ZM11318.7 2013.85C11329.2 1995.8 11341.2 1975.17 11349.5 1954.67L11281 1926.81C11275 1941.63 11265.8 1957.61 11254.7 1976.77L11318.7 2013.85ZM11283.2 2093.52C11286.1 2071.41 11299.8 2046.57 11318.7 2013.85L11254.7 1976.77C11237.9 2005.7 11215 2044.18 11209.8 2083.95L11283.2 2093.52ZM11266.8 2172.59C11272.9 2147.6 11279.7 2120.32 11283.2 2093.52L11209.8 2083.95C11207 2105.89 11201.3 2129.04 11194.9 2154.88L11266.8 2172.59ZM11249.6 2284.61C11247.6 2251.5 11256.3 2215.27 11266.8 2172.59L11194.9 2154.88C11185 2194.99 11173 2242.64 11175.8 2289.09L11249.6 2284.61ZM11307.3 2367.9C11271.3 2337.7 11251.8 2319.52 11249.6 2284.61L11175.8 2289.09C11180 2359.51 11226.1 2396.41 11259.7 2424.6L11307.3 2367.9ZM11339.2 2395.96C11328.4 2385.58 11317.2 2376.21 11307.3 2367.9L11259.7 2424.6C11270 2433.15 11279.2 2440.93 11287.9 2449.26L11339.2 2395.96ZM11576.5 2486.85C11487.5 2500.66 11406.5 2460.8 11339.2 2395.96L11287.9 2449.26C11364.6 2523.16 11467.6 2578.63 11587.8 2559.98L11576.5 2486.85ZM11725.7 2365.3C11680.8 2428.47 11645 2476.22 11576.5 2486.85L11587.8 2559.98C11691.3 2543.91 11743.5 2467.93 11786 2408.19L11725.7 2365.3ZM11743.4 2340.72C11737.4 2348.94 11731.5 2357.24 11725.7 2365.3L11786 2408.19C11791.8 2400.06 11797.4 2392.19 11803.1 2384.48L11743.4 2340.72ZM11800.8 2179.92C11788.6 2242.55 11778.2 2293.31 11743.4 2340.72L11803.1 2384.48C11849 2321.88 11861.5 2255.03 11873.4 2194.08L11800.8 2179.92ZM11811.2 2129.48C11807.2 2146.77 11803.9 2163.77 11800.8 2179.92L11873.4 2194.08C11876.6 2177.76 11879.7 2161.87 11883.3 2145.88L11811.2 2129.48ZM11809.5 1893.13C11825.1 1921.9 11830.9 1959.55 11829.6 2002.48C11828.4 2045.05 11820.3 2089.45 11811.2 2129.48L11883.3 2145.88C11892.8 2104.16 11902.1 2054.33 11903.6 2004.68C11905.1 1955.38 11898.9 1902.81 11874.5 1857.83L11809.5 1893.13ZM11652.6 1765.65C11676.6 1765.65 11707.2 1780.39 11738.8 1807.53C11769.5 1833.88 11795.3 1867.09 11809.5 1893.13L11874.5 1857.83C11855.9 1823.62 11824.3 1783.41 11787.1 1751.4C11750.7 1720.19 11703.1 1691.65 11652.6 1691.65V1765.65ZM11537 1741.61C11579.9 1762.19 11609.4 1765.65 11652.6 1765.65V1691.65C11616.5 1691.65 11598.8 1689.21 11569 1674.9L11537 1741.61ZM11454 1734.6C11485.3 1728.79 11513.8 1730.48 11537 1741.61L11569 1674.9C11527 1654.73 11481.2 1654.29 11440.5 1661.83L11454 1734.6ZM11447 1771.23C11457.6 1753.44 11468.5 1735.31 11479.3 1716.82L11415.3 1679.61C11404.8 1697.61 11394.2 1715.34 11383.5 1733.19L11447 1771.23ZM11724.5 1136.74C11710.5 1133.46 11696.3 1130.34 11682.1 1127.43L11667.2 1199.91C11680.7 1202.69 11694.2 1205.67 11707.8 1208.81L11724.5 1136.74ZM11709.4 1150.94C11709.4 1150.84 11709.3 1150.72 11709.3 1150.59L11639.1 1173.99C11639.4 1174.8 11639.6 1175.6 11639.9 1176.4L11709.4 1150.94ZM11421.8 1668.28C11419.7 1672.07 11417.5 1675.84 11415.3 1679.61L11479.3 1716.82C11481.5 1712.94 11483.8 1709.03 11486 1705.11L11421.8 1668.28ZM11440.5 1661.83C11405 1668.42 11371.2 1681.46 11343 1695.55L11376.1 1761.74C11399.8 1749.86 11427 1739.61 11454 1734.6L11440.5 1661.83Z" fill="black"/>
</svg>
